<svg xmlns="http://www.w3.org/2000/svg" viewBox="0 0 512 512">
  <defs>
    <radialGradient id="bg" cx="28%" cy="14%" r="95%">
      <stop offset="0%" stop-color="#173a31"/>
      <stop offset="70%" stop-color="#0c1b16"/>
    </radialGradient>
    <linearGradient id="drop" x1="0" y1="0" x2="0" y2="1">
      <stop offset="0%" stop-color="#5be3c4"/>
      <stop offset="100%" stop-color="#2fae8d"/>
    </linearGradient>
  </defs>

  <rect width="512" height="512" rx="108" fill="url(#bg)"/>

  <path d="M256 108c66 84 104 146 104 196a104 104 0 0 1-208 0c0-50 38-112 104-196z" fill="url(#drop)"/>
  <path d="M232 244c-14 22-24 42-24 58a24 24 0 0 0 24 24" fill="none" stroke="#0c1b16" stroke-width="14" stroke-linecap="round" opacity="0.35"/>

  <rect x="150" y="372" width="52" height="14" rx="7" fill="#5be3c4" opacity="0.9"/>
  <rect x="214" y="372" width="84" height="14" rx="7" fill="#5be3c4" opacity="0.55"/>
  <rect x="310" y="372" width="52" height="14" rx="7" fill="#5be3c4" opacity="0.9"/>
</svg>
